<svg width="102" height="103" viewBox="0 0 102 103" fill="none" xmlns="http://www.w3.org/2000/svg">
<g clip-path="url(#clip0_2862_14017)">
<path d="M52.7896 51.2242L52.8615 51.1836" stroke="#9FA9BA" stroke-miterlimit="10"/>
<path d="M52.7902 51.2236L52.7002 51.2777" stroke="#9FA9BA" stroke-miterlimit="10"/>
<path d="M87.1635 31.6562L53.0913 51.0547" stroke="#9FA9BA" stroke-miterlimit="10"/>
<path d="M52.5068 51.3878L52.7003 51.2764" stroke="#9FA9BA" stroke-miterlimit="10"/>
<path d="M52.8623 51.1839L53.0918 51.0547" stroke="#9FA9BA" stroke-miterlimit="10"/>
<path d="M18.0337 71.0144L52.5063 51.3887" stroke="#9FA9BA" stroke-miterlimit="10"/>
<path d="M52.686 51.0811L52.7008 51.0908" stroke="#9FA9BA" stroke-miterlimit="10"/>
<path d="M52.6374 51.0542L18.3853 31.375" stroke="#9FA9BA" stroke-miterlimit="10"/>
<path d="M52.6862 51.0817L52.6367 51.0547" stroke="#9FA9BA" stroke-miterlimit="10"/>
<path d="M52.7002 51.0898L52.7149 51.0996" stroke="#9FA9BA" stroke-miterlimit="10"/>
<path d="M52.8623 51.1836L87.3709 71.0099" stroke="#9FA9BA" stroke-miterlimit="10"/>
<path d="M52.8623 51.1843L52.7139 51.0986" stroke="#9FA9BA" stroke-miterlimit="10"/>
<path d="M52.686 51.0547L52.695 51.0637" stroke="#9FA9BA" stroke-miterlimit="10"/>
<path d="M52.7903 51.2234L52.7139 51.0986" stroke="#9FA9BA" stroke-miterlimit="10"/>
<path d="M52.7142 51.0993L52.7002 51.0762" stroke="#9FA9BA" stroke-miterlimit="10"/>
<path d="M52.6958 51.0635L52.7007 51.0782" stroke="#9FA9BA" stroke-miterlimit="10"/>
<path d="M52.7896 51.2236L70.0708 79.9335" stroke="#9FA9BA" stroke-miterlimit="10"/>
<path d="M52.6863 51.0547L35.7109 22.8574" stroke="#9FA9BA" stroke-miterlimit="10"/>
<path d="M52.7002 51.0546V12.0527" stroke="#9FA9BA" stroke-miterlimit="10"/>
<path d="M52.7002 90.9468V51.2764" stroke="#9FA9BA" stroke-miterlimit="10"/>
<path d="M52.7002 51.0762V51.0908" stroke="#9FA9BA" stroke-miterlimit="10"/>
<path d="M52.7002 51.2771V51.0898" stroke="#9FA9BA" stroke-miterlimit="10"/>
<path d="M52.7002 51.0778V51.0547" stroke="#9FA9BA" stroke-miterlimit="10"/>
<path d="M53.0916 51.0547H52.7002" stroke="#9FA9BA" stroke-miterlimit="10"/>
<path d="M52.6862 51.0547H52.6367" stroke="#9FA9BA" stroke-miterlimit="10"/>
<path d="M18.9424 51.0547H52.6366" stroke="#9FA9BA" stroke-miterlimit="10"/>
<path d="M86.4571 51.0547H53.0913" stroke="#9FA9BA" stroke-miterlimit="10"/>
<path d="M52.686 51.0547H52.7008" stroke="#9FA9BA" stroke-miterlimit="10"/>
<path d="M35.7383 80.1609L52.5067 51.3887" stroke="#9FA9BA" stroke-miterlimit="10"/>
<path d="M52.7009 51.0547L52.6958 51.0647" stroke="#9FA9BA" stroke-miterlimit="10"/>
<path d="M69.4101 22.3799L52.7002 51.0541" stroke="#9FA9BA" stroke-miterlimit="10"/>
<path d="M52.6959 51.0635L52.686 51.083" stroke="#9FA9BA" stroke-miterlimit="10"/>
<path d="M52.5068 51.3886L52.6868 51.0811" stroke="#9FA9BA" stroke-miterlimit="10"/>
<path d="M18.3853 31.3741C18.7452 30.6565 18.9567 29.8497 18.9567 28.9895C18.9567 26.0342 16.5406 23.6406 13.5577 23.6406C10.5747 23.6406 8.15869 26.0342 8.15869 28.9895C8.15869 31.9447 10.5747 34.3383 13.5577 34.3383C15.6723 34.3383 17.5035 33.1303 18.3853 31.3741Z" stroke="#9FA9BA" stroke-width="3" stroke-linecap="round" stroke-linejoin="round"/>
<path d="M18.0344 71.0136C17.0625 69.5917 15.4203 68.6602 13.5577 68.6602C10.5747 68.6602 8.15869 71.0538 8.15869 74.009C8.15869 76.9642 10.5747 79.3578 13.5577 79.3578C16.5406 79.3578 18.9567 76.9642 18.9567 74.009C18.9567 72.8991 18.6147 71.8695 18.0344 71.0136Z" stroke="#9FA9BA" stroke-width="3" stroke-linecap="round" stroke-linejoin="round"/>
<path d="M87.3707 71.0092C86.7858 71.865 86.4438 72.8946 86.4438 74.009C86.4438 76.9642 88.8599 79.3578 91.8428 79.3578C94.8258 79.3578 97.2418 76.9642 97.2418 74.009C97.2418 71.0538 94.8258 68.6602 91.8428 68.6602C89.9802 68.6602 88.3425 69.5917 87.3707 71.0092Z" stroke="#9FA9BA" stroke-width="3" stroke-linecap="round" stroke-linejoin="round"/>
<path d="M87.0135 51.0541C87.1305 53.9024 89.497 56.1801 92.399 56.1801C95.3819 56.1801 97.798 53.7865 97.798 50.8313C97.798 47.876 95.3819 45.4824 92.399 45.4824C89.4161 45.4824 87 47.876 87 50.8313C87 50.907 87.009 50.9783 87.0135 51.0541Z" stroke="#9FA9BA" stroke-width="3" stroke-linecap="round" stroke-linejoin="round"/>
<path d="M17.9432 51.0541C17.9477 50.9783 17.9567 50.907 17.9567 50.8313C17.9567 47.876 15.5406 45.4824 12.5577 45.4824C9.57474 45.4824 7.15869 47.876 7.15869 50.8313C7.15869 53.7865 9.57474 56.1801 12.5577 56.1801C15.4641 56.1801 17.8262 53.9024 17.9432 51.0541Z" stroke="#9FA9BA" stroke-width="3" stroke-linecap="round" stroke-linejoin="round"/>
<path d="M34.7384 81.1617C33.915 80.658 32.9432 80.3594 31.9039 80.3594C28.9209 80.3594 26.5049 82.753 26.5049 85.7082C26.5049 88.6634 28.9209 91.057 31.9039 91.057C34.8868 91.057 37.3029 88.6634 37.3029 85.7082C37.3029 83.7871 36.2771 82.1067 34.7384 81.1617Z" stroke="#9FA9BA" stroke-width="3" stroke-linecap="round" stroke-linejoin="round"/>
<path d="M34.7114 21.8565C36.2636 20.916 37.3029 19.2267 37.3029 17.2922C37.3029 14.337 34.8868 11.9434 31.9039 11.9434C28.9209 11.9434 26.5049 14.337 26.5049 17.2922C26.5049 20.2474 28.9209 22.641 31.9039 22.641C32.9342 22.641 33.8925 22.3513 34.7114 21.8565Z" stroke="#9FA9BA" stroke-width="3" stroke-linecap="round" stroke-linejoin="round"/>
<path d="M71.0716 80.9344C69.3079 81.8169 68.0977 83.6177 68.0977 85.7082C68.0977 88.6634 70.5137 91.057 73.4967 91.057C76.4796 91.057 78.8956 88.6634 78.8956 85.7082C78.8956 82.753 76.4796 80.3594 73.4967 80.3594C72.6238 80.3594 71.8005 80.5689 71.0716 80.9344Z" stroke="#9FA9BA" stroke-width="3" stroke-linecap="round" stroke-linejoin="round"/>
<path d="M52.7003 12.0531C55.6832 12.0531 58.0993 9.65953 58.0993 6.7043C58.0993 3.74907 55.6832 1.35547 52.7003 1.35547C49.7173 1.35547 47.3013 3.74907 47.3013 6.7043C47.3013 9.65953 49.7173 12.0531 52.7003 12.0531Z" stroke="#9FA9BA" stroke-width="3" stroke-linecap="round" stroke-linejoin="round"/>
<path d="M70.4096 21.38C71.2374 21.8971 72.2183 22.1957 73.2711 22.1957C76.254 22.1957 78.6701 19.8021 78.6701 16.8469C78.6701 13.8916 76.254 11.498 73.2711 11.498C70.2881 11.498 67.8721 13.8916 67.8721 16.8469C67.8721 18.7591 68.8889 20.4306 70.4096 21.38Z" stroke="#9FA9BA" stroke-width="3" stroke-linecap="round" stroke-linejoin="round"/>
<path d="M87.1637 31.655C88.095 33.2596 89.8407 34.3383 91.8428 34.3383C94.8258 34.3383 97.2418 31.9447 97.2418 28.9895C97.2418 26.0342 94.8258 23.6406 91.8428 23.6406C88.8599 23.6406 86.4438 26.0342 86.4438 28.9895C86.4438 29.9612 86.7093 30.866 87.1637 31.655Z" stroke="#9FA9BA" stroke-width="3" stroke-linecap="round" stroke-linejoin="round"/>
<path d="M52.7003 90.9473C49.7173 90.9473 47.3013 93.3409 47.3013 96.2961C47.3013 99.2513 49.7173 101.645 52.7003 101.645C55.6832 101.645 58.0993 99.2513 58.0993 96.2961C58.0993 93.3409 55.6832 90.9473 52.7003 90.9473Z" stroke="#9FA9BA" stroke-width="3" stroke-linecap="round" stroke-linejoin="round"/>
<path d="M68 59.25L52.5 68L37 59.25V41.75L52.5 33L68 41.75V59.25Z" fill="#9FA9BA"/>
<path d="M51.5103 45.7842H53.6595V58.2926H51.5103V45.7842Z" fill="white"/>
<path d="M47.5956 49.9349H45.4463V44.708H60.2379V46.861H47.5956V49.9349Z" fill="white"/>
</g>
<defs>
<clipPath id="clip0_2862_14017">
<rect width="102" height="103" fill="white"/>
</clipPath>
</defs>
</svg>
