<svg width="123" height="42" viewBox="0 0 123 42" fill="none" xmlns="http://www.w3.org/2000/svg">
<path d="M50.2949 36.6898C50.7352 36.2849 51.2854 35.7788 51.7256 35.2727C52.6061 34.3617 53.4865 33.4507 54.477 32.6409C54.8072 32.3372 55.1373 32.1348 55.3574 31.9323C55.4675 31.8311 55.4675 31.7299 55.5776 31.6286C55.1373 31.8311 54.9172 32.1348 54.477 32.236C54.367 32.236 54.2569 32.1348 54.367 32.0335C54.6971 31.8311 54.9172 31.6286 55.2474 31.4262C55.2474 31.4262 55.2474 31.4262 55.1373 31.4262C55.0273 31.4262 55.0273 31.325 55.0273 31.2237C53.9267 31.0213 53.1564 31.7299 52.386 32.3372C52.1659 32.4384 52.0558 32.236 51.9458 32.236C50.7352 32.6409 49.7447 33.6531 48.5341 34.058C48.5341 33.9568 48.5341 33.9568 48.5341 33.8556C47.9838 34.058 47.5436 34.2604 46.9933 34.3617C46.2229 34.5641 45.5626 34.4629 44.9023 34.4629C43.9118 34.5641 42.9213 34.7666 41.8207 34.969H41.7107C41.1604 35.0702 40.6101 35.2727 40.1699 35.5764C40.1699 35.5764 40.1699 35.5764 40.0599 35.5764L39.9498 35.6776C39.7297 35.88 39.6196 35.9812 39.3995 36.1837C38.8493 36.3861 38.5191 36.8923 37.9688 37.1959H37.8588C37.4186 37.6008 36.9783 38.0057 36.5381 38.4106C36.5381 38.4106 36.4281 38.4106 36.318 38.4106C36.208 38.4106 36.318 38.4106 36.318 38.3094C36.4281 38.2082 36.4281 38.1069 36.5381 38.0057C36.6482 37.9045 36.6482 37.8033 36.7582 37.6008C36.8683 37.3984 36.9783 37.2971 37.0884 37.0947V36.9935H36.9783C37.4185 36.5886 37.8588 36.2849 38.409 35.9812C38.299 35.9812 38.299 35.9812 38.299 35.88C38.299 35.7788 38.409 35.7788 38.409 35.6776C38.409 35.6776 38.409 35.6776 38.409 35.5764C38.409 35.5764 38.409 35.5764 38.299 35.4751C38.1889 35.5764 37.9688 35.6776 37.8588 35.6776C37.6387 35.88 37.5286 36.1837 37.1984 36.1837H37.0884H36.9783C36.9783 36.1837 36.9783 36.1837 36.9783 36.0825C36.9783 36.0825 36.9783 36.0825 36.9783 35.9812C36.9783 35.9812 36.9783 35.9812 36.9783 35.88C36.9783 35.88 36.9783 35.7788 37.0884 35.7788C37.0884 35.7788 37.0884 35.7788 37.0884 35.6776C37.0884 35.5764 37.1984 35.5764 37.1984 35.4751V35.3739L37.3085 35.2727C37.3085 35.1715 37.3085 35.1715 37.1984 35.1715C37.3085 34.969 37.5286 34.8678 37.7487 34.6653C38.0789 34.5641 38.409 34.3617 38.7392 34.1592L38.8493 34.058C38.409 34.1592 37.9688 34.3617 37.5286 34.6653C37.5286 34.6653 37.4186 34.6653 37.4186 34.7666C37.4186 34.7666 37.3085 34.7666 37.1984 34.6653C37.1984 34.6653 37.1984 34.6653 37.1984 34.5641C37.3085 34.3617 37.5286 34.3617 37.7487 34.1592C37.8588 34.1592 37.9688 34.1592 37.9688 34.2604C40.6101 32.3372 44.352 32.8433 47.4335 31.8311C47.6536 31.6286 47.9838 31.5274 48.2039 31.325C48.6441 31.1225 48.9743 30.8189 49.4145 30.5152C50.0748 30.0091 50.6251 29.503 50.8452 28.7944C50.8452 28.6932 50.7352 28.5919 50.7352 28.5919C49.6346 29.7054 48.424 30.5152 47.1034 31.1225C45.3425 31.9323 43.4716 31.8311 41.6006 32.0335C41.7107 31.8311 41.8207 31.8311 42.0408 31.8311C42.0408 31.6286 42.261 31.5274 42.371 31.325H42.5911C42.7012 31.325 42.7012 31.1225 42.8112 31.1225C43.0313 31.1225 43.2514 31.0213 43.1414 31.0213C42.9213 30.7176 42.371 31.2237 41.9308 31.0213C42.1509 30.8189 42.0408 30.6164 42.1509 30.5152H42.4811C42.4811 30.3127 42.7012 30.2115 42.7012 30.2115C43.9118 29.503 45.1224 28.9968 46.333 28.3895C46.1129 28.3895 45.8928 28.5919 45.6726 28.4907C45.8928 28.4907 45.6726 28.2883 45.8928 28.2883C46.7732 28.0858 47.5436 27.5797 48.5341 27.276C48.2039 27.276 47.9838 27.4785 47.6536 27.276C47.8737 27.1748 47.8737 27.0736 48.2039 27.0736C48.2039 26.9724 48.2039 26.8711 48.2039 26.8711C48.2039 26.7699 48.314 26.7699 48.424 26.7699C48.314 26.7699 48.2039 26.6687 48.2039 26.6687C48.314 26.4663 48.5341 26.5675 48.7542 26.4663C48.6441 26.4663 48.5341 26.4663 48.5341 26.365C48.7542 26.0614 49.1944 25.9601 49.6346 25.8589C49.5246 25.6565 49.3044 25.8589 49.3044 25.6565C49.3044 25.5552 49.4145 25.5552 49.5246 25.5552C49.4145 25.5552 49.4145 25.5552 49.3044 25.5552C49.0843 25.454 49.1944 25.3528 49.1944 25.2516C49.7447 24.7455 49.7447 24.0369 49.9648 23.4296C49.8547 23.4296 49.7447 23.4296 49.7447 23.3283C48.8642 24.1381 47.5436 24.4418 46.333 24.7455C46.2229 24.7455 46.0028 24.7455 45.8928 24.7455C45.4525 24.9479 44.9023 24.9479 44.462 24.6442C44.1319 24.4418 43.9118 24.2393 43.5816 24.0369C42.9213 23.632 42.261 23.3283 41.4906 23.1259C39.6196 23.632 37.4186 23.3283 35.2175 23.4296C36.0979 22.9234 37.1984 22.9234 38.1889 22.6198C39.6196 22.2149 40.9403 21.81 42.4811 21.81C42.261 21.7088 41.9308 21.81 41.6006 21.81C40.39 21.7088 39.2895 22.0124 37.9688 22.3161C37.0884 22.5185 36.4281 22.8222 35.5476 22.9234C34.9973 23.1259 34.7772 23.5308 34.227 23.4296V23.2271C35.1074 22.3161 36.0979 21.4051 37.4186 21.3039C38.9593 21.1014 40.39 21.3039 41.8207 21.5063C42.9213 21.6075 43.9118 21.81 45.0123 22.0124C45.4525 22.0124 45.5626 22.6198 45.8928 22.721C46.443 22.9234 46.8832 22.721 47.4335 23.0247C47.4335 22.8222 47.3235 22.721 47.4335 22.5185C47.7637 22.2149 48.2039 22.6198 48.5341 22.4173C49.1944 22.0124 47.9838 21.3039 47.6536 20.7977C47.6536 20.6965 47.7637 20.5953 47.7637 20.5953C48.424 21.1014 48.9743 21.7088 49.7447 22.1136C50.1849 22.3161 51.1754 22.5185 50.9553 22.0124C50.515 21.2026 49.7447 20.4941 49.0843 19.6843C49.0843 19.5831 49.0843 19.4818 49.0843 19.3806C48.8642 19.3806 48.8642 19.2794 48.8642 19.1782C48.8642 19.0769 48.8642 18.9757 48.8642 18.8745C48.5341 18.6721 48.6441 18.3684 48.424 18.1659C48.2039 17.761 48.314 17.2549 48.2039 16.7488C48.0938 16.2427 47.9838 15.939 47.8737 15.4329C47.6536 14.117 47.3235 13.0035 47.1034 11.7889C46.8832 10.3717 47.9838 9.15706 48.7542 7.84115C49.3044 6.93014 49.9648 6.01913 51.0653 5.41179C51.2854 4.50078 51.9458 3.691 52.6061 2.98243C53.2664 2.27387 54.367 1.76775 55.1373 1.46408C56.3479 0.957967 57.3384 0.654297 57.3384 0.654297H0V41.3461H40.6101C42.1509 40.3339 43.8017 39.8277 46.0028 38.8155C47.1034 38.5118 49.4145 37.4996 50.2949 36.6898ZM37.4186 31.2237C37.1984 31.2237 36.8683 31.325 36.9783 31.1225C37.0884 30.7176 37.6387 30.7176 37.9688 30.6164C38.1889 30.5152 38.409 30.414 38.5191 30.414C38.7392 30.6164 38.9593 30.6164 39.0694 30.7176C38.6292 31.2237 37.9688 31.0213 37.4186 31.2237ZM24.6522 29.503C24.6522 29.503 24.5422 29.4017 24.5422 29.3005C25.6427 27.9846 26.4131 26.7699 27.1835 25.3528C28.284 24.8467 29.1645 24.0369 30.0449 23.2271C31.4756 21.81 33.0164 20.5953 34.7772 19.8867C35.4376 19.6843 36.318 19.6843 36.9783 19.988C36.7582 20.2916 36.318 20.1904 35.9878 20.4941C35.8778 20.4941 35.7677 20.4941 35.7677 20.3929C35.8778 20.2916 35.8778 20.1904 35.8778 20.1904C34.9973 21.0002 33.8968 21.4051 33.2365 22.4173C32.6862 23.2271 32.356 24.1381 31.3656 24.4418C31.0354 24.543 31.4756 24.2393 31.2555 24.2393C28.5041 25.6565 26.6332 27.4785 24.6522 29.503ZM31.5857 24.4418C31.4756 24.6442 31.3656 24.6442 31.3656 24.7455C31.2555 24.9479 31.1454 24.9479 31.0354 25.0491C30.9253 25.0491 30.8153 25.0491 30.8153 24.9479C30.9253 24.6442 31.1454 24.3406 31.4756 24.2393C31.5857 24.3406 31.5857 24.3406 31.5857 24.4418ZM35.4376 35.9812C35.4376 36.0825 35.3275 36.1837 35.2175 36.1837C35.3275 36.1837 35.4376 36.2849 35.3275 36.2849C35.1074 36.4874 34.9974 36.5886 34.6672 36.6898H34.5571C34.4471 36.791 34.337 36.8923 34.227 36.9935C34.1169 37.0947 33.6767 36.9935 33.7868 36.8923C34.0069 36.6898 34.227 36.4874 34.4471 36.3861C34.5571 36.2849 34.6672 36.1837 34.7772 36.0825L34.9973 35.88C35.1074 35.88 35.5476 35.7788 35.4376 35.9812ZM33.8968 35.3739C33.5666 35.5764 33.2365 35.7788 32.9063 35.9812C32.5761 36.1837 32.1359 36.2849 31.8058 36.4874C31.4756 36.6898 31.6957 36.3861 31.6957 36.4874C31.3655 36.6898 31.1454 36.8923 30.8153 37.0947L30.7052 37.1959L30.5952 37.2971C30.4851 37.3984 30.4851 37.3984 30.3751 37.4996L30.265 37.6008C30.265 37.6008 30.0449 37.6008 30.0449 37.4996C30.0449 37.3984 29.9348 37.4996 29.9348 37.6008C29.9348 37.6008 29.8248 37.6008 29.8248 37.702C29.8248 37.702 29.8248 37.702 29.7147 37.702C29.7147 37.702 29.7147 37.702 29.6047 37.702C29.4946 37.8033 29.3846 37.9045 29.2745 37.9045C29.0544 38.0057 28.9444 38.2082 28.8343 38.4106C28.7242 38.6131 28.8343 38.5118 28.7242 38.5118C28.6142 38.5118 28.7242 38.5118 28.6142 38.5118C28.5041 38.5118 28.6142 38.4106 28.5041 38.4106C28.6142 38.3094 28.7242 38.2082 28.7242 38.1069L28.8343 38.0057C28.8343 37.9045 28.9443 37.9045 28.9443 37.8033C28.9443 37.8033 28.9443 37.8033 28.9443 37.702C29.0544 37.6008 29.1645 37.4996 29.1645 37.3984C29.1645 37.2971 29.2745 37.2971 29.2745 37.1959C29.2745 37.1959 29.3846 37.0947 29.3846 36.9935C29.3846 36.8923 29.4946 36.8923 29.4946 36.791V36.6898V36.5886C29.4946 36.5886 29.4946 36.5886 29.4946 36.4874C29.6047 36.3861 29.7147 36.1837 29.8248 36.0825C29.7147 36.1837 29.6047 36.2849 29.4946 36.2849C29.3846 36.3861 29.2745 36.2849 29.3846 36.1837C29.4946 36.1837 29.4946 36.0825 29.6047 35.9812C29.7147 35.88 29.8248 35.6776 30.0449 35.5764C30.1549 35.4751 30.265 35.4751 30.265 35.3739C30.3751 35.2727 30.3751 35.2727 30.4851 35.1715C31.2555 34.4629 32.5762 34.4629 33.6767 34.058C34.1169 33.8556 34.5571 34.1592 34.9973 34.058C35.2175 34.058 35.5476 34.058 35.7677 34.2604C35.3275 34.5641 34.6672 34.969 33.8968 35.3739ZM35.6577 30.0091C35.5476 29.9078 35.8778 30.0091 35.9878 29.8066C35.7677 29.8066 35.5476 29.8066 35.3275 29.8066C35.2175 29.8066 35.2175 29.7054 35.2175 29.6042C34.7772 29.7054 34.337 29.8066 33.8968 29.9078C33.3465 30.1103 32.7963 30.414 32.1359 30.6164C31.2555 30.9201 30.4851 31.6286 29.4946 31.9323C29.3846 31.9323 29.3846 31.8311 29.3846 31.7299C29.4946 31.5274 29.8248 31.4262 29.9348 31.2237C29.9348 31.1225 29.9348 31.0213 29.8248 31.0213C30.4851 30.2115 31.3655 29.7054 32.246 28.9968C32.246 28.8956 32.246 28.7944 32.246 28.7944C32.4661 28.4907 32.9063 28.2883 33.1264 27.9846C33.2365 27.7822 33.5666 27.4785 34.0069 27.276C33.8968 27.1748 33.7868 27.1748 33.7868 27.0736C33.4566 27.0736 33.1264 27.276 32.7963 26.9724C32.9063 26.8711 33.1264 26.7699 33.3465 26.6687C33.2365 26.6687 33.2365 26.6687 33.1264 26.5675C33.0164 26.365 33.2365 26.2638 33.5666 26.1626C33.8968 26.0614 34.337 26.0614 34.5571 25.8589C34.0069 25.7577 33.3465 26.0614 32.6862 25.6565C33.1264 24.6442 33.7868 23.8344 34.7772 23.3283C34.8873 23.3283 34.9973 23.3283 34.9973 23.4296C34.9973 23.8344 34.7772 24.1381 34.337 24.2393C34.9974 24.4418 35.6577 24.4418 36.318 24.7455C36.208 24.9479 36.0979 24.8467 35.9878 24.8467C36.4281 25.0491 36.8683 24.9479 37.3085 25.2516C37.0884 25.454 36.7582 25.2516 36.5381 25.2516C39.1794 25.9601 41.9308 26.4663 44.0218 27.9846C42.1509 28.7944 40.28 29.1993 38.299 29.6042C38.0789 29.6042 37.8588 29.6042 37.6387 29.503C37.6387 29.6042 37.6387 29.7054 37.5286 29.7054C37.1984 29.7054 36.9783 29.7054 36.6482 29.9078C36.4281 30.1103 35.8778 30.2115 35.6577 30.0091Z" fill="#000091"/>
<path d="M123 0.654297H74.3736C74.3736 0.654297 74.4862 0.654297 74.8239 0.856241C75.2741 1.05819 75.7244 1.26013 76.0621 1.46207C76.7374 1.76499 77.3002 2.16888 77.6379 2.67374C77.863 2.87568 78.0882 3.38055 77.863 3.68346C77.6379 4.08735 77.6379 4.69318 77.1877 4.79416C76.6249 4.9961 75.9495 4.9961 75.3867 4.9961C75.049 4.9961 74.7113 4.89513 74.3736 4.79416C75.6118 5.29902 76.85 5.80388 77.7505 6.8136C77.863 7.01554 78.2007 7.01554 78.5384 7.01554V7.31846C78.3133 7.52041 78.2007 7.52041 78.3133 7.82332H78.5384C78.9886 7.62138 78.8761 6.91457 79.4389 7.11652C79.8891 7.31846 80.0017 7.92429 79.7766 8.22721C79.4389 8.53013 79.1012 8.73207 78.7635 9.03499C78.651 9.23693 78.651 9.43888 78.7635 9.53985C78.9886 9.84276 79.1012 10.1457 79.2138 10.4486C79.4389 10.9535 79.5514 11.5593 79.7766 12.1651C80.1143 13.2758 80.4519 14.4875 80.3394 15.5982C80.3394 16.204 80.0017 16.7089 80.2268 17.3147C80.4519 17.9205 80.7896 18.4254 81.1273 18.9303C81.465 19.4351 81.8027 19.738 82.0278 20.1419C82.5906 20.9497 83.4911 21.6565 83.0408 22.5653C82.8157 23.0701 81.8027 23.0701 81.2399 23.373C80.6771 23.7769 81.1273 24.3828 81.465 24.7866C81.9152 25.4935 80.9022 25.8973 80.3394 26.2003C80.5645 26.4022 80.9022 26.4022 80.9022 26.5032C81.0147 26.9071 81.465 27.109 81.1273 27.5129C80.7896 28.0178 79.7766 28.2197 80.2268 28.9265C80.5645 29.4314 80.3394 30.0372 80.1143 30.643C79.8891 31.3498 79.2138 31.6528 78.5384 31.7537C77.9756 31.9557 77.4128 31.9557 76.9625 31.8547C76.7374 31.7537 76.6249 31.6528 76.3997 31.6528C74.9364 31.4508 73.4731 31.1479 72.0098 31.1479C71.5596 31.2489 71.1094 31.3498 70.7717 31.4508C70.434 31.7537 70.0963 31.9557 69.7586 32.2586C69.6461 32.3596 69.6461 32.3596 69.5335 32.4605L69.4209 32.5615C69.4209 32.5615 69.4209 32.6625 69.3084 32.6625C69.0833 32.9654 68.8581 33.2683 68.633 33.5712V33.6722C68.633 33.6722 68.633 33.7732 68.5205 33.7732C68.2953 34.278 68.0702 34.6819 67.8451 35.1868C67.2823 36.9033 67.5074 38.4179 67.9577 38.8218C68.0702 38.9228 70.7717 39.6296 72.6852 40.4373C73.5857 40.7402 74.1485 41.0432 74.7113 41.3461H122.437V0.654297H123Z" fill="#E1000F"/>
<path d="M77.1433 15.3453C77.4817 15.4496 78.0457 15.4496 78.0457 15.5538C77.8201 16.1793 76.8049 16.3878 76.3537 17.0133H76.1281C75.9025 17.2218 75.9025 17.5346 75.6769 17.5346C75.4513 17.4303 75.1129 17.5346 74.8873 17.6388C75.2257 17.9516 75.6769 18.1601 76.1281 18.1601C76.2409 18.1601 76.3537 18.3686 76.3537 18.4728C76.3537 18.4728 76.4665 18.4728 76.5793 18.3686C76.6921 18.3686 76.8049 18.3686 76.8049 18.4728V18.7856C76.5793 19.0983 76.1281 18.9941 75.7897 18.9941C76.4665 19.2026 77.1433 19.2026 77.7073 18.9941C78.2713 18.7856 77.7073 18.0558 78.0457 17.6388C77.8201 17.6388 78.0457 17.4303 77.8201 17.4303C78.0457 17.2218 78.1585 17.0133 78.3841 16.9091C78.6097 16.9091 78.8353 16.8048 78.9481 16.7006C78.9481 16.4921 78.6097 16.4921 78.7225 16.2836C79.2865 15.9708 79.6249 15.4496 79.5121 15.0326C79.3993 14.8241 78.7225 14.8241 78.2713 14.6156C77.8201 14.4071 77.3689 14.6156 76.8049 14.7198C76.3537 14.7198 75.9025 14.9283 75.5641 15.0326C75.0001 15.2411 74.4361 15.5538 73.9849 15.8666C74.5489 15.6581 75.2257 15.5538 75.9025 15.3453C76.2409 15.3453 76.6921 15.1368 77.1433 15.3453Z" fill="#9D9D9C"/>
</svg>
