<svg width="65" height="84" viewBox="0 0 65 84" fill="none" xmlns="http://www.w3.org/2000/svg">
<path d="M45.0353 56.9494V71.4859C45.0353 76.9605 40.5973 81.3985 35.1227 81.3985H11.9126C6.43802 81.3985 2 76.9605 2 71.4859V11.9126C2 6.43802 6.43801 2 11.9126 2H35.1227C40.5973 2 45.0353 6.43801 45.0353 11.9126V29.4747" stroke="#9FA9BA" stroke-width="3.43128"/>
<line x1="19.5479" y1="8.57186" x2="27.4865" y2="8.57186" stroke="#9FA9BA" stroke-width="2.66877"/>
<line x1="22.019" y1="74.0553" x2="25.0149" y2="74.0553" stroke="#9FA9BA" stroke-width="2.66877"/>
<line x1="2.08838" y1="14.3887" x2="45.0351" y2="14.3887" stroke="#9FA9BA"/>
<line x1="2.08838" y1="67.5889" x2="45.0351" y2="67.5889" stroke="#9FA9BA"/>
<circle cx="23.9342" cy="33.9948" r="4.19379" fill="#9FA9BA" stroke="#9FA9BA" stroke-width="0.381253"/>
<line x1="23.99" y1="33.9258" x2="23.99" y2="53.9737" stroke="#9FA9BA" stroke-width="2.28752"/>
<line x1="19.5801" y1="47.8758" x2="23.979" y2="47.8758" stroke="#9FA9BA" stroke-width="2.28752"/>
<line x1="19.5801" y1="51.3074" x2="23.979" y2="51.3074" stroke="#9FA9BA" stroke-width="2.28752"/>
<mask id="path-10-inside-1_2800_13890" fill="white">
<path fill-rule="evenodd" clip-rule="evenodd" d="M65 34H36V52H60.9091L65 57V52V48.8947V34Z"/>
</mask>
<path fill-rule="evenodd" clip-rule="evenodd" d="M65 34H36V52H60.9091L65 57V52V48.8947V34Z" fill="#9FA9BA"/>
<path d="M36 34V31H33V34H36ZM65 34H68V31H65V34ZM36 52H33V55H36V52ZM60.9091 52L63.231 50.1003L62.3307 49H60.9091V52ZM65 57L62.6781 58.8997L68 65.4042V57H65ZM36 37H65V31H36V37ZM39 52V34H33V52H39ZM60.9091 49H36V55H60.9091V49ZM67.3219 55.1003L63.231 50.1003L58.5872 53.8997L62.6781 58.8997L67.3219 55.1003ZM62 52V57H68V52H62ZM62 48.8947V52H68V48.8947H62ZM62 34V48.8947H68V34H62Z" fill="#9FA9BA" mask="url(#path-10-inside-1_2800_13890)"/>
</svg>
